#!OML:ASF H:\Terrain\Patient Classification 1\PLAYGROUND\JustinFriday\JustinFriday.ASF
:FULLY-SPECIFIED
:DEGREES
1469
root -14.2661 27.8373 -4.77144 321.406 -4.85792 1.28066
lowerback 41.1303 1.81663 3.99678
upperback 18.0518 3.7734 2.42113
thorax 0.504755 2.03607 -0.73316
lowerneck 28.1823 -18.4435 6.46539
upperneck -16.6805 -19.9949 10.6054
head -9.1671 -10.9767 5.81398
rclavicle -3.26007e-014 9.54166e-015
rhumerus 50.687 -49.281 -53.8708
rradius 92.6901
rwrist -7.06324
rhand -22.7457 -10.7379
rfingers 7.12502
rthumb 3.68872 -40.6857
lclavicle -3.26007e-014 9.54166e-015
lhumerus -35.7731 -22.4233 61.5419
lradius 79.3787
lwrist -41.6616
lhand -31.136 -45.8497
lfingers 7.12502
lthumb -4.41442 -15.9157
rfemur -29.3807 0.784056 7.55728
rtibia 77.4391
rfoot 14.6413 -11.3143
rtoes 24.2156
lfemur -28.7138 2.88168 -3.0201
ltibia 79.8187
lfoot 16.3404 -7.06705
ltoes 2.74857
1470
root -14.2609 27.8496 -4.78061 320.919 -4.82412 1.56707
lowerback 41.5059 1.86611 3.85249
upperback 16.9333 3.84389 2.31632
thorax -0.853003 2.02719 -0.846949
lowerneck 30.2564 -18.5635 5.63712
upperneck -16.4517 -20.1753 10.7413
head -9.27817 -11.0269 6.13963
rclavicle 2.5842e-015 -2.38542e-015
rhumerus 45.852 -47.8558 -49.6232
rradius 92.2847
rwrist -7.66925
rhand -22.4068 -11.0051
rfingers 7.12502
rthumb 4.01595 -40.947
lclavicle 2.5842e-015 -2.38542e-015
lhumerus -38.4833 -23.696 62.3776
lradius 80.024
lwrist -41.235
lhand -30.9437 -45.6546
lfingers 7.12502
lthumb -4.22874 -15.7168
rfemur -28.8639 0.933577 7.37743
rtibia 76.8217
rfoot 15.3635 -11.3016
rtoes 24.3525
lfemur -27.9415 2.49508 -3.46122
ltibia 79.1196
lfoot 16.7431 -6.54806
ltoes 3.30196
1471
root -14.2671 27.8004 -4.79137 321.47 -6.42729 -0.150388
lowerback 40.6348 1.5781 5.64452
upperback 18.33 4.03769 2.97814
thorax 1.05553 2.2578 -1.03767
lowerneck 25.7423 -18.4562 6.93742
upperneck -16.6072 -20.1769 10.6477
head -8.80967 -11.0973 5.56003
rclavicle 3.1408e-014 -1.59028e-014
rhumerus 48.7823 -48.6253 -51.0262
rradius 91.5766
rwrist -8.24468
rhand -23.8299 -9.59483
rfingers 7.12502
rthumb 2.64165 -39.5582
lclavicle 3.1408e-014 -1.59028e-014
lhumerus -34.9399 -21.751 61.8261
lradius 79.1656
lwrist -41.5361
lhand -30.7884 -45.8046
lfingers 7.12502
lthumb -4.07885 -15.8639
rfemur -29.6727 1.61333 10.364
rtibia 76.3875
rfoot 15.0149 -12.6938
rtoes 26.0108
lfemur -28.8831 3.84756 -0.407461
ltibia 79.2315
lfoot 17.4606 -8.27325
ltoes 1.86313
1472
root -14.2432 27.8337 -4.76217 319.808 -4.10352 2.80524
lowerback 41.1636 2.10877 2.71133
upperback 17.8814 3.66506 2.0676
thorax 0.240087 1.91665 -0.427933
lowerneck 28.5447 -18.3014 6.62082
upperneck -16.8375 -19.663 10.6862
head -9.30325 -10.8438 5.83035
rclavicle 1.63003e-014 2.38542e-014
rhumerus 48.5128 -47.6371 -51.5046
rradius 91.5684
rwrist -5.62146
rhand -20.812 -11.5857
rfingers 7.12502
rthumb 5.55587 -41.4929
lclavicle 1.63003e-014 2.38542e-014
lhumerus -36.2704 -22.5933 62.0523
lradius 78.8974
lwrist -42.0518
lhand -30.6601 -46.0034
lfingers 7.12502
lthumb -3.95495 -16.0603
rfemur -27.8769 1.04805 5.8369
rtibia 75.8833
rfoot 14.6266 -11.4484
rtoes 26.698
lfemur -26.6601 2.73675 -5.24324
ltibia 78.6427
lfoot 16.4906 -7.78351
ltoes 0.0867709
1473
root -14.2571 27.7376 -4.78379 321.253 -7.67662 -0.97616
lowerback 41.1154 1.24481 7.05481
upperback 17.4271 4.21221 2.9024
thorax 0.0419646 2.39205 -1.92653
lowerneck 25.8463 -18.3107 7.20869
upperneck -15.8877 -19.8965 10.5553
head -8.62352 -10.9566 5.41441
rclavicle -5.1684e-015 -3.10104e-014
rhumerus 49.1086 -47.3706 -51.791
rradius 91.0179
rwrist -4.69057
rhand -20.2352 -12.0193
rfingers 7.12502
rthumb 6.11275 -41.9111
lclavicle -5.1684e-015 -3.10104e-014
lhumerus -35.481 -22.3393 61.709
lradius 78.5602
lwrist -42.1024
lhand -30.5219 -46.0496
lfingers 7.12502
lthumb -3.82144 -16.1041
rfemur -29.8744 2.03847 12.2451
rtibia 75.5515
rfoot 14.7252 -13.1771
rtoes 27.8673
lfemur -28.8557 4.71744 1.39748
ltibia 79.073
lfoot 17.9521 -9.35934
ltoes 1.16785
1474
root -14.2695 27.681 -4.80856 321.707 -8.92653 -2.59313
lowerback 41.1951 0.968949 8.63208
upperback 17.2134 4.48964 3.40419
thorax -0.0877881 2.58011 -2.27911
lowerneck 25.2082 -18.6363 8.77686
upperneck -16.7666 -20.1342 9.23677
head -9.13504 -10.9938 4.89829
rclavicle 5.48646e-014 1.82882e-014
rhumerus 49.1943 -46.8105 -51.518
rradius 90.3423
rwrist -4.51894
rhand -20.5675 -11.7644
rfingers 7.12502
rthumb 5.79189 -41.6652
lclavicle 5.48646e-014 1.82882e-014
lhumerus -35.0879 -22.1992 61.8203
lradius 78.2451
lwrist -42.1541
lhand -30.8953 -45.8952
lfingers 7.12502
lthumb -4.18207 -15.9565
rfemur -30.61 2.65245 14.9264
rtibia 75.0893
rfoot 14.9953 -14.2253
rtoes 28.7997
lfemur -29.7696 5.47915 4.06641
ltibia 78.9209
lfoot 19.2189 -9.60275
ltoes 2.8605
1475
root -14.2452 27.7832 -4.76569 318.894 -3.96291 2.97496
lowerback 41.5373 2.2187 2.40009
upperback 18.1612 3.69436 2.18933
thorax 0.421592 1.90668 -0.150278
lowerneck 24.7189 -18.9363 10.3149
upperneck -17.8957 -20.3563 7.95043
head -9.76917 -11.0306 4.43217
rclavicle 3.65764e-014 -1.59028e-015
rhumerus 48.3413 -46.475 -50.3981
rradius 90.0486
rwrist -5.41207
rhand -22.3025 -11.2715
rfingers 7.12502
rthumb 4.11662 -41.2115
lclavicle 3.65764e-014 -1.59028e-015
lhumerus -34.8897 -22.0218 62.1064
lradius 78.0656
lwrist -42.2703
lhand -30.8885 -45.6695
lfingers 7.12502
lthumb -4.17544 -15.7307
rfemur -27.4878 1.2849 6.12481
rtibia 74.4857
rfoot 15.4114 -11.5053
rtoes 27.041
lfemur -26.0096 2.7757 -5.39547
ltibia 77.6873
lfoot 17.5728 -7.04913
ltoes 3.94385
1476
root -14.2528 27.7946 -4.79257 320.146 -4.29913 1.4938
lowerback 40.1837 1.56887 3.93187
upperback 17.813 3.42517 2.30399
thorax 0.502738 1.8712 -0.700273
lowerneck 25.1375 -18.985 8.84503
upperneck -17.0093 -20.4115 10.0348
head -9.12279 -11.2314 5.19774
rclavicle -2.34566e-014 0
rhumerus 47.2366 -46.0564 -49.5635
rradius 89.8624
rwrist -6.4667
rhand -24.1774 -10.3249
rfingers 7.12502
rthumb 2.30607 -40.2921
lclavicle -2.34566e-014 0
lhumerus -34.898 -22.1051 61.9335
lradius 77.9354
lwrist -42.2073
lhand -33.67 -44.3163
lfingers 7.12502
lthumb -6.86098 -14.4475
rfemur -28.6017 0.623296 7.94029
rtibia 73.7581
rfoot 15.4598 -12.2562
rtoes 26.6214
lfemur -27.7113 2.74017 -3.83043
ltibia 77.274
lfoot 17.9163 -7.73746
ltoes 2.424
1477
root -14.2768 27.7516 -4.81371 320.755 -6.89735 -0.910023
lowerback 39.8066 1.21716 6.68556
upperback 17.3514 3.96861 2.91282
thorax 0.290451 2.26478 -1.63165
lowerneck 26.3014 -18.2602 7.35039
upperneck -17.109 -19.4211 11.7093
head -9.04556 -10.9147 5.86339
rclavicle -1.33186e-014 -1.43125e-014
rhumerus 46.3389 -45.2897 -48.9283
rradius 89.4767
rwrist -6.57874
rhand -24.3347 -9.7157
rfingers 7.12502
rthumb 2.15416 -39.6846
lclavicle -1.33186e-014 -1.43125e-014
lhumerus -35.4446 -22.4298 61.9333
lradius 78.1436
lwrist -42.0285
lhand -34.2563 -43.9238
lfingers 7.12502
lthumb -7.42692 -14.0741
rfemur -29.527 2.06539 12.4878
rtibia 73.0856
rfoot 14.9702 -13.9861
rtoes 27.0338
lfemur -28.6012 4.37768 0.703721
ltibia 77.0042
lfoot 18.7034 -9.48321
ltoes -0.661258
1478
root -14.2654 27.7702 -4.79032 319.726 -5.10556 1.11212
lowerback 39.9276 1.59673 4.59606
upperback 16.7138 3.72506 2.21134
thorax -0.585846 2.03093 -1.26784
lowerneck 28.6947 -18.01 6.58039
upperneck -17.146 -18.8631 12.4058
head -9.30549 -10.7134 6.33287
rclavicle -3.08116e-014 2.78299e-014
rhumerus 43.6949 -43.9238 -47.2168
rradius 89.1549
rwrist -6.37412
rhand -24.1177 -9.65686
rfingers 7.12502
rthumb 2.36373 -39.6235
lclavicle -3.08116e-014 2.78299e-014
lhumerus -37.6212 -23.4806 62.279
lradius 78.7823
lwrist -41.9736
lhand -33.1862 -44.1711
lfingers 7.12502
lthumb -6.39393 -14.2876
rfemur -28.5306 1.6698 9.39767
rtibia 72.5485
rfoot 15.2655 -12.8699
rtoes 25.9203
lfemur -27.4106 3.55322 -2.72736
ltibia 76.4628
lfoot 18.2386 -8.50143
ltoes -0.567298
1479
root -14.2651 27.7558 -4.78427 319.635 -5.09289 1.17154
lowerback 40.3437 1.60256 4.4471
upperback 16.8864 3.69091 2.26247
thorax -0.531588 2.00275 -1.12955
lowerneck 22.1138 -18.2481 9.97049
upperneck -14.2217 -20.0067 7.98442
head -8.02818 -10.8043 3.87116
rclavicle 4.90998e-014 -2.62396e-014
rhumerus 44.2293 -43.9528 -47.1402
rradius 88.7626
rwrist -6.30576
rhand -24.6416 -9.71234
rfingers 7.12502
rthumb 1.85774 -39.684
lclavicle 4.90998e-014 -2.62396e-014
lhumerus -36.7023 -22.6283 62.2645
lradius 78.3791
lwrist -42.1889
lhand -31.5431 -44.6929
lfingers 7.12502
lthumb -4.80761 -14.7674
rfemur -28.6012 1.31231 9.50224
rtibia 72.072
rfoot 16.0322 -12.4524
rtoes 25.774
lfemur -27.4458 3.65723 -2.81477
ltibia 76.2186
lfoot 18.2373 -8.27624
ltoes 0.329255
1480
root -14.2727 27.7227 -4.79184 320.207 -6.32009 -0.103707
lowerback 39.7848 1.30555 6.08505
upperback 16.7758 3.88901 2.51738
thorax -0.372845 2.18562 -1.74477
lowerneck 18.6167 -18.2503 11.6229
upperneck -11.0614 -20.6933 5.02996
head -6.89987 -10.8301 2.36633
rclavicle 9.34288e-015 -7.95139e-015
rhumerus 43.6165 -43.8326 -46.4046
rradius 88.3922
rwrist -6.61891
rhand -25.4165 -9.46089
rfingers 7.12502
rthumb 1.10927 -39.4378
lclavicle 9.34288e-015 -7.95139e-015
lhumerus -36.247 -22.5428 62.2065
lradius 78.2268
lwrist -42.2274
lhand -30.4377 -44.9571
lfingers 7.12502
lthumb -3.74011 -15.0102
rfemur -29.4141 1.2292 11.7679
rtibia 71.5855
rfoot 16.1555 -12.8082
rtoes 26.3206
lfemur -28.3072 4.45024 -0.630982
ltibia 75.9909
lfoot 18.5981 -8.6398
ltoes 0.0784203
1481
root -14.2766 27.7182 -4.79742 320.144 -6.32331 -0.165203
lowerback 38.1768 1.30066 6.31399
upperback 17.6751 3.80214 2.53627
thorax 0.97465 2.225 -1.78139
lowerneck 19.5867 -18.4151 11.4184
upperneck -13.1353 -20.5256 6.50528
head -7.57152 -10.935 3.03769
rclavicle -2.76311e-014 2.46493e-014
rhumerus 44.4462 -43.9366 -47.1091
rradius 88.0615
rwrist -6.21628
rhand -25.4793 -9.10862
rfingers 7.12502
rthumb 1.04869 -39.0858
lclavicle -2.76311e-014 2.46493e-014
lhumerus -35.2051 -22.1984 61.9775
lradius 78.2507
lwrist -42.2213
lhand -29.9151 -45.2023
lfingers 7.12502
lthumb -3.23551 -15.2471
rfemur -29.4552 1.30018 11.991
rtibia 70.9259
rfoot 15.4127 -13.4405
rtoes 27.6387
lfemur -28.3683 4.5923 -0.594904
ltibia 75.5996
lfoot 18.5652 -8.29763
ltoes 0.681964
